<?xml version="1.0" encoding="UTF-8"?>
<svg id="Vrstva_2" data-name="Vrstva 2" xmlns="http://www.w3.org/2000/svg" xmlns:xlink="http://www.w3.org/1999/xlink" viewBox="0 0 2093 1229.5">
  <defs>
    <style>
      .cls-1, .cls-2 {
        fill: none;
      }

      .cls-3 {
        clip-path: url(#clippath);
      }

      .cls-4 {
        fill: #fff;
      }

      .cls-5 {
        fill: #2060f6;
      }

      .cls-6 {
        clip-path: url(#clippath-1);
      }

      .cls-2 {
        stroke: #fff;
        stroke-width: 12px;
      }
    </style>
    <clipPath id="clippath">
      <rect class="cls-1" width="2093" height="1229.5"/>
    </clipPath>
    <clipPath id="clippath-1">
      <rect class="cls-1" width="2093" height="1229.5"/>
    </clipPath>
  </defs>
  <g id="Vrstva_1-2" data-name="Vrstva 1">
    <rect class="cls-5" width="2093" height="1229.5"/>
    <g class="cls-3">
      <path class="cls-4" d="M225,407.79c0-2.83,.32-5.74,3.88-5.74,3.06,0,3.88,2.59,3.88,5.18v3.14l6.06-5.02c2.18-1.77,4.44-3.3,6.87-3.3h6.22c2.98,0,5.49,.96,7.6,3.07,2.59,2.59,3.47,5.25,3.47,8.81,0,2.66-.49,5.41-3.79,5.41-2.84,0-3.97-2.26-3.97-4.77,0-1.3,0-2.26-.8-3.39-.97-1.37-2.82-1.37-4.68-1.37h-2.28c-1.45,0-2.49,.71-3.86,1.85l-10.83,8.96v19.64c0,2.67-.56,5.33-3.88,5.33s-3.88-2.66-3.88-5.33v-32.48Z"/>
      <path class="cls-4" d="M280.72,421.69h22.46v-4.68c0-1.46,.08-2.67-.97-3.63l-2.99-2.59c-.97-.88-2.49-.97-3.72-.97h-6.54c-1.45,0-2.66,0-3.96,.9l-2.67,1.93c-.97,.74-1.61,1.29-1.61,3.56v5.49Zm6.47,23.91c-3.24,0-4.52,0-6.95-2.1l-3.32-2.9c-3.08-2.75-3.96-4.52-3.96-8.73v-14.95c0-4.12,.57-6.54,3.79-9.29l2.75-2.34c3.63-3.17,5.42-3.23,8.57-3.23h7.1c3.79,0,5.57,.4,8.57,2.83l3.15,2.49c3.57,2.83,4.04,5.82,4.04,10.09v6.23c0,4.43-.72,5.73-5.33,5.73h-24.89v2.59c0,.72,.56,1.69,1.14,2.25l1.94,2.1c1.05,1.14,2.59,1.45,5.17,1.45h16.64c2.58,0,5.33,.57,5.33,3.88s-3.06,3.88-5.33,3.88h-18.42Z"/>
      <path class="cls-4" d="M351.87,411.74v-3.96c0-2.75,.49-5.73,3.95-5.73,2.75,0,3.8,2.18,3.8,4.68v5.49c0,1.29-.32,1.95-.88,3.16l-11.56,25.37c-.72,1.62-2.1,4.84-4.03,4.84h-5.02c-1.94,0-3.32-3.23-4.04-4.84l-11.55-25.37c-.56-1.21-.89-1.86-.89-3.16v-5.49c0-2.51,1.05-4.68,3.8-4.68,3.49,0,3.96,2.99,3.96,5.73v3.96l11.23,25.78,11.23-25.78Z"/>
      <path class="cls-4" d="M378.19,431.13c0,1.61,.56,2.67,2.83,4.61,1.69,1.44,2.9,2.09,5.32,2.09h6.14c2.43,0,3.63-.65,5.34-2.09,2.25-1.94,2.81-3,2.81-4.61v-14.62c0-1.62-.56-2.67-2.81-4.6-1.71-1.45-2.91-2.1-5.34-2.1h-6.14c-2.42,0-3.63,.65-5.32,2.1-2.27,1.93-2.83,2.99-2.83,4.6v14.62Zm-7.76-14.62c0-5.17,1.05-6.95,4.93-10.1,3.79-3.15,5.58-4.36,10.98-4.36h6.14c5.4,0,7.18,1.21,10.99,4.36,3.88,3.15,4.93,4.93,4.93,10.1v14.62c0,5.08-1.3,7.03-5.34,10.43-4.04,3.39-5.65,4.03-10.57,4.03h-6.14c-4.92,0-6.54-.65-10.58-4.03-4.05-3.4-5.33-5.35-5.33-10.43v-14.62Z"/>
      <path class="cls-4" d="M439.01,437.84h5.82c2.58,0,5.33,.56,5.33,3.88s-3.07,3.88-5.33,3.88h-19.71c-2.26,0-5.33-.48-5.33-3.88s2.74-3.88,5.33-3.88h6.14v-44.04h-6.14c-2.26,0-5.33-.48-5.33-3.88s2.74-3.88,5.33-3.88h8.16c4.44,0,5.73,.81,5.73,5.4v46.4Z"/>
      <path class="cls-4" d="M473.62,430.97c0,4.37-.16,6.86,5.16,6.86h3.96c3.15,0,4.61-.24,5.41-3.39,.48-1.86,1.95-3.16,3.88-3.16,2.18,0,3.96,1.71,3.96,3.89s-1.38,4.92-2.66,6.46c-2.84,3.4-6.55,3.96-10.67,3.96h-3.96c-3.88,0-7.27-.89-10.01-3.89-2.99-3.31-2.83-6.62-2.83-10.82v-21.09h-2.51c-2.26,0-5.33-.48-5.33-3.88s2.74-3.87,5.33-3.87h2.51v-7.93c0-2.67,.56-5.32,3.88-5.32s3.88,2.65,3.88,5.32v7.93h13.01c2.58,0,5.32,.56,5.32,3.87s-3.07,3.88-5.32,3.88h-13.01v21.18Z"/>
      <path class="cls-4" d="M518.63,425.24c-2.19,0-5.4,.6-5.4,3.55v5.4c0,2.71,3.29,3.3,5.23,3.3h8.95l8.95-4.65v-1.78c0-4.46-1.27-5.83-5.74-5.83h-12Zm.09-17.06c-2.36,0-5.58-.51-5.58-4.05s2.87-4.05,5.58-4.05h11.14c4.22,0,7.27,.42,10.47,3.63,3.12,3.13,3.54,5.57,3.64,9.62l.84,27.54c.08,2.36-1.1,4.72-3.8,4.72-2.11,0-4.22-1.77-4.14-4.04l-5.57,2.86c-2.29,1.18-2.37,1.18-4.99,1.18h-7.77c-3.64,0-6.25-.42-9.21-2.87-3.37-2.78-4.21-5.74-4.21-9.97v-3.53c0-3.9,.93-6.34,3.97-9.05,2.77-2.45,5.91-3.04,9.46-3.04h17.39v-1.86c0-6.08-1.34-7.09-7.18-7.09h-10.04Z"/>
      <path class="cls-4" d="M996.78,405.58h-36.65v-24.79h36.65c4.91,0,8.5,.99,10.78,2.97,2.28,1.98,3.41,5.12,3.41,9.43,0,8.27-4.73,12.4-14.19,12.4m65.22,19.94h-41.5v14.37c0,2.4-.45,4.16-1.35,5.3-.9,1.14-2.31,1.71-4.22,1.71-2.64,0-5.03-2.28-7.19-6.83l-9.16-20.84h11.68c14.97,0,25.78-2.55,32.43-7.64,6.65-5.09,9.97-13.33,9.97-24.7s-3.47-19.76-10.42-25.51c-6.95-5.75-17.19-8.62-30.72-8.62h-108.34v28.03h12.94c1.2,0,1.8,.6,1.8,1.8v63.96c0,1.2-.6,1.8-1.8,1.8h-12.94v28.03h70.61v-28.03h-11.86c-1.2,0-1.8-.6-1.8-1.8v-22.1h12.76c1.56,0,2.58,.66,3.05,1.98l12.58,29.65c3.23,7.79,7.61,13.53,13.12,17.25,5.51,3.71,13.35,5.57,23.54,5.57,12.94,0,22.31-2.52,28.12-7.55s8.71-12.82,8.71-23.36v-22.46Z"/>
      <path class="cls-4" d="M531.23,672.4c3.05-.29,5.68-.49,7.88-.59,2.2-.1,4.28-.15,6.25-.15,9.65,0,17.81,.93,24.47,2.81,6.66,1.87,10,4.45,10,7.73,0,2.95-1.59,5.8-4.78,8.52-3.19,2.73-7.93,5.32-14.23,7.78-6.3,2.46-14.33,4.91-24.08,7.34-9.75,2.43-21.52,4.96-35.3,7.58,3.02-3.94,6.32-8.26,9.9-12.95,3.58-4.69,6.27-8.3,8.07-10.83,1.8-2.53,3.28-4.99,4.43-7.39,1.15-2.4,1.72-4.51,1.72-6.35,0-.72-.02-1.28-.05-1.67-.03-.39-.08-.82-.15-1.28,.85-.07,2.81-.25,5.86-.54m2.76,98.09c3.64,1.94,7.7,4.14,12.16,6.6,4.46,2.46,7.96,4.33,10.49,5.61,2.53,1.28,4.09,1.92,4.68,1.92,1.84,0,3.04-1.1,3.59-3.3,.56-2.2,.84-5.6,.84-10.19,0-4.07-.23-6.99-.69-8.77-.46-1.77-1.41-3.21-2.86-4.33-1.45-1.11-4.56-2.92-9.35-5.42-3.41-1.77-8.12-4.05-14.13-6.84-6.01-2.79-13.39-5.97-22.16-9.55-8.76-3.58-18.2-7.14-28.31-10.68,13.52-.72,25.77-1.87,36.73-3.45,10.96-1.58,20.32-3.38,28.07-5.42,7.75-2.03,13.52-4.04,17.33-6.01,4.66-2.36,8.65-5.43,11.97-9.21,3.31-3.77,5.78-7.88,7.39-12.31,1.61-4.43,2.41-8.98,2.41-13.64s-1.59-9.19-4.78-13.2c-3.18-4-7.76-6.99-13.74-8.96-2.3-.85-5.43-1.71-9.41-2.56-3.97-.85-8.4-1.58-13.29-2.17-4.89-.59-9.9-.89-15.02-.89-8.47,0-17.02,.64-25.65,1.92-8.63,1.28-16.48,2.95-23.54,5.02-7.06,2.07-12.26,4.12-15.61,6.15-2.95,1.71-5.58,4.1-7.88,7.19-2.3,3.09-4.07,6.14-5.32,9.16-1.25,3.02-1.87,5.09-1.87,6.21,0,1.51,.43,2.72,1.28,3.64,.85,.92,2.03,1.38,3.55,1.38,1.12,0,3.1-.06,5.96-.2,2.86-.13,6.38-.26,10.59-.39,7.42-.33,11.93-.54,13.54-.64,1.61-.1,2.41-.48,2.41-1.13,0-.59-.61-.97-1.82-1.13-1.22-.16-2.92-.25-5.12-.25s-4.02-.13-5.47-.39c-1.45-.26-2.17-.75-2.17-1.48,0-.79,.59-1.39,1.77-1.82,1.18-.43,3.23-.92,6.15-1.48,2.92-.56,6.55-1.26,10.88-2.12,4.07-.92,11.26-2.07,21.57-3.45-3.42,4.53-8.16,10.87-14.23,19.01-6.07,8.14-11.7,15.72-16.89,22.75-6.37,.79-10.24,1.28-11.62,1.48-1.38,.2-2.69,.57-3.94,1.13-1.25,.56-2.33,1.31-3.25,2.26-.92,.95-2.3,2.81-4.14,5.56-2.1,3.15-3.25,5.47-3.45,6.94-.2,1.48,.16,2.48,1.08,3,.92,.53,3.31,1.58,7.19,3.15-6.96,9.32-12.43,17.42-16.4,24.27-3.97,6.86-5.96,11.01-5.96,12.46,0,2.56,1.67,3.84,5.02,3.84,1.18,0,3.14-1,5.86-3,2.72-2,4.48-4.48,5.27-7.44,1.12-4.14,6.4-12.67,15.86-25.6l37.13,18.12c7.88,3.81,13.64,6.68,17.28,8.62"/>
      <path class="cls-4" d="M1234.46,413.39v-28.63h14.48c2.59,0,4.95,.23,7.08,.7,2.12,.47,3.91,1.24,5.35,2.32,1.44,1.08,2.56,2.52,3.35,4.32,.79,1.8,1.19,4,1.19,6.59v.43c0,4.75-1.44,8.32-4.32,10.7-2.88,2.38-7.09,3.56-12.64,3.56h-14.48Zm-9.4,41.06h9.4v-33.6h11.88l23.01,33.6h10.48l-23.66-34.25c2.66-.5,5.15-1.3,7.46-2.38,2.3-1.08,4.32-2.47,6.05-4.16,1.73-1.69,3.1-3.75,4.11-6.16,1.01-2.41,1.51-5.2,1.51-8.37v-.43c0-3.89-.72-7.18-2.16-9.89-1.44-2.7-3.39-4.92-5.83-6.64-2.45-1.73-5.31-2.99-8.59-3.78-3.28-.79-6.75-1.19-10.43-1.19h-23.23v77.25Z"/>
      <path class="cls-2" d="M1249.07,481.23c36.12,0,65.41-29.28,65.41-65.41s-29.29-65.41-65.41-65.41-65.41,29.28-65.41,65.41,29.29,65.41,65.41,65.41Z"/>
      <path class="cls-4" d="M1455.8,368.81c7.05,0,12.76-5.71,12.76-12.76s-5.71-12.76-12.76-12.76-12.76,5.71-12.76,12.76,5.71,12.76,12.76,12.76"/>
      <path class="cls-4" d="M1455.8,428.58c7.05,0,12.76-5.71,12.76-12.76s-5.71-12.76-12.76-12.76-12.76,5.71-12.76,12.76,5.71,12.76,12.76,12.76"/>
      <path class="cls-4" d="M1455.8,398.69c7.05,0,12.76-5.71,12.76-12.76s-5.71-12.76-12.76-12.76-12.76,5.71-12.76,12.76,5.71,12.76,12.76,12.76"/>
      <path class="cls-4" d="M1455.8,458.46c7.05,0,12.76-5.71,12.76-12.76s-5.71-12.76-12.76-12.76-12.76,5.71-12.76,12.76,5.71,12.76,12.76,12.76"/>
      <path class="cls-4" d="M1455.8,488.34c7.05,0,12.76-5.71,12.76-12.76s-5.71-12.76-12.76-12.76-12.76,5.71-12.76,12.76,5.71,12.76,12.76,12.76"/>
      <path class="cls-4" d="M1485.68,368.81c7.05,0,12.76-5.71,12.76-12.76s-5.71-12.76-12.76-12.76-12.76,5.71-12.76,12.76,5.71,12.76,12.76,12.76"/>
      <path class="cls-4" d="M1485.68,428.58c7.05,0,12.76-5.71,12.76-12.76s-5.71-12.76-12.76-12.76-12.76,5.71-12.76,12.76,5.71,12.76,12.76,12.76"/>
      <path class="cls-4" d="M1515.56,368.81c7.05,0,12.76-5.71,12.76-12.76s-5.71-12.76-12.76-12.76-12.76,5.71-12.76,12.76,5.71,12.76,12.76,12.76"/>
      <path class="cls-4" d="M1515.56,428.58c7.05,0,12.76-5.71,12.76-12.76s-5.71-12.76-12.76-12.76-12.76,5.71-12.76,12.76,5.71,12.76,12.76,12.76"/>
      <path class="cls-4" d="M1515.56,458.46c7.05,0,12.76-5.71,12.76-12.76s-5.71-12.76-12.76-12.76-12.76,5.71-12.76,12.76,5.71,12.76,12.76,12.76"/>
      <path class="cls-4" d="M1545.44,368.81c7.05,0,12.76-5.71,12.76-12.76s-5.71-12.76-12.76-12.76-12.76,5.71-12.76,12.76,5.71,12.76,12.76,12.76"/>
      <path class="cls-4" d="M1545.44,428.58c7.05,0,12.76-5.71,12.76-12.76s-5.71-12.76-12.76-12.76-12.76,5.71-12.76,12.76,5.71,12.76,12.76,12.76"/>
      <path class="cls-4" d="M1545.44,488.34c7.05,0,12.76-5.71,12.76-12.76s-5.71-12.76-12.76-12.76-12.76,5.71-12.76,12.76,5.71,12.76,12.76,12.76"/>
      <path class="cls-4" d="M1575.32,398.69c7.05,0,12.76-5.71,12.76-12.76s-5.71-12.76-12.76-12.76-12.76,5.71-12.76,12.76,5.71,12.76,12.76,12.76"/>
      <path class="cls-4" d="M1080.28,678.69c-.35-9.92-6.55-15.94-16.27-14.9-3.71,.4-7.49,1.41-10.91,2.88-13.36,5.76-23.62,15.25-30.7,27.83-2.77,4.92-4.8,10.56-5.81,16.11-1.85,10.19,5.14,17.32,15.46,16.23,3.88-.41,7.89-1.4,11.42-3.01,14.82-6.77,25.79-17.68,32.76-32.38,1.9-4,2.73-8.5,4.05-12.78m17.56,104.04c-15.91,.86-27.76-5.98-36.79-18.14-5.59-7.53-10.57-15.5-15.85-23.26-.96-1.41-2.01-2.75-3.97-5.42v45.16c-10.58,0-20.65,.07-30.71-.11-.9-.02-1.98-1.51-2.6-2.55-.4-.67-.1-1.76-.1-2.66,0-40.25,0-80.51,.01-120.76,0-1.57,.21-3.15,.38-5.4,20.06,.71,39.94-2.03,59.36,3.8,16.39,4.93,27.61,14.74,29.92,32.52,2.39,18.36-5.15,32.24-19.95,42.65-1.3,.91-2.69,1.67-4.04,2.51,.03,.51,.06,1.01,.09,1.51,7.93,.59,15.85,1.18,24.24,1.8v48.37Z"/>
    </g>
    <rect class="cls-4" x="1516.77" y="648.71" width="53.86" height="134.93"/>
    <g class="cls-6">
      <path class="cls-4" d="M1612.72,733.46c23.25,0,42.09-18.85,42.09-42.09s-18.85-42.1-42.09-42.1-42.09,18.85-42.09,42.1,18.85,42.09,42.09,42.09"/>
      <path class="cls-4" d="M332.4,696.97c-.9-2.77-3.47-4.8-7.23-5.7l-15.74-3.8c-14.65-3.53-32.99-16.85-40.88-29.69l-6.25-10.17c-2.62-4.26-6.13-6.61-9.88-6.61s-7.26,2.35-9.88,6.61l-11.24,18.29c-5.14,8.36-17.07,17.03-26.61,19.33l-20.89,5.04c-4.86,1.17-8.18,3.78-9.34,7.35-1.16,3.57-.01,7.63,3.24,11.43l13.93,16.34c6.37,7.47,10.93,21.5,10.17,31.28l-1.66,21.4c-.39,4.99,1.07,8.95,4.11,11.15,3.04,2.21,7.25,2.37,11.88,.46l18.89-7.79c9.61-3.96,25.24-3.97,34.85,0l19.86,8.2c2.01,.83,3.95,1.25,5.73,1.25,2.07,0,3.94-.56,5.48-1.68,2.87-2.08,4.24-5.82,3.88-10.53l-1.58-20.34c-.85-10.95,4.25-26.65,11.38-35.01l15.31-17.96c2.51-2.94,3.4-6.09,2.5-8.86"/>
      <path class="cls-4" d="M1771.74,466.87c2.69,.18,4.73,.28,6.76,.46,1.1,.1,2.19,.31,3.69,.53,.29,6,.58,11.91,.92,18.77-4.98-.43-9.51-.83-14.82-1.29,1.19-6.37,2.27-12.14,3.45-18.47"/>
      <path class="cls-4" d="M1711.18,416.17c.56-5.23,1.03-9.61,1.52-14.27,6.4,1.26,12.06,2.38,17.63,3.48,1.44,9.99,.8,10.78-8.49,10.79-3.16,0-6.32,0-10.66,0"/>
      <path class="cls-4" d="M1731.92,465.71c-2.87-3.42-5.59-6.67-8.84-10.55,5.4-3.66,10.41-7.06,15.69-10.64,2.35,2.82,4.45,5.34,6.65,7.99-4.4,4.31-8.63,8.44-13.5,13.21"/>
      <path class="cls-4" d="M1768.26,346.12c1.31,6.69,2.45,12.47,3.65,18.59-3.46,1.1-6.43,2.05-9.95,3.16-2.38-5.62-4.68-11.05-7.38-17.42,4.49-1.42,8.62-2.73,13.68-4.33"/>
      <path class="cls-4" d="M1821.42,474.78c-3.63-5.4-6.94-10.31-10.51-15.63,2.67-2.25,5.16-4.36,7.84-6.62,4.26,4.61,8.39,9.09,12.81,13.88-2.89,2.39-6.29,5.19-10.14,8.38"/>
      <path class="cls-4" d="M1716.76,443.24c-1.47-4.77-2.72-8.81-4.2-13.61,6.3-1.33,12.06-2.55,18.42-3.89,1.08,3.29,2.1,6.4,3.31,10.09-5.64,2.38-11.08,4.68-17.53,7.41"/>
      <path class="cls-4" d="M1825.18,444.85c1.81-3.39,3.3-6.16,5.05-9.44,5.73,2.38,11.34,4.71,17.49,7.26-2.32,4.39-4.37,8.29-6.67,12.65-5.45-3.59-10.4-6.86-15.87-10.47"/>
      <path class="cls-4" d="M1834.23,415.64h18.68c-.41,4.55-.8,8.89-1.26,13.97-5.98-1.1-11.31-1.95-16.55-3.2-.81-.19-1.63-2.22-1.66-3.42-.06-2.23,.45-4.47,.8-7.34"/>
      <path class="cls-4" d="M1733.18,364.59c2.33-1.89,5.74-4.66,9.54-7.75,3.7,5.46,7.02,10.37,10.51,15.53-2.56,2.24-4.91,4.3-7.04,6.16-4.27-4.57-8.49-9.09-13.01-13.94"/>
      <path class="cls-4" d="M1755.22,481.39c-4.38-2.32-8.28-4.39-12.69-6.73,3.68-5.46,6.99-10.37,10.56-15.67,3.12,1.61,6.03,3.12,9.41,4.87-2.41,5.8-4.74,11.42-7.28,17.54"/>
      <path class="cls-4" d="M1847.47,388.12c1.47,4.84,2.7,8.88,4.14,13.63-6.39,1.32-12.31,2.55-18.49,3.83-1.14-3.6-2.08-6.57-3.18-10.04,5.64-2.39,11.1-4.7,17.52-7.42"/>
      <path class="cls-4" d="M1739.02,386.84c-1.89,3.44-3.41,6.19-5.12,9.32-5.67-2.34-11.14-4.59-17.46-7.2,2.22-4.23,4.24-8.08,6.65-12.68,5.49,3.64,10.54,6.98,15.93,10.56"/>
      <path class="cls-4" d="M1795.82,485.26c-1.32-6.54-2.46-12.18-3.72-18.43,3.3-1.04,6.41-2.01,10.11-3.18,2.36,5.65,4.65,11.12,7.29,17.43-4.61,1.41-8.9,2.72-13.68,4.17"/>
      <path class="cls-4" d="M1808.83,350.04c4.47,2.35,8.23,4.33,12.65,6.66-3.59,5.46-6.91,10.52-10.45,15.91-3.16-1.7-6.05-3.26-9.38-5.05,2.32-5.66,4.56-11.13,7.18-17.53"/>
      <path class="cls-4" d="M1782.1,345.01c4.61,.37,8.64,.7,13.64,1.11-1.15,6.37-2.18,12.13-3.33,18.51-3.59-.29-6.81-.55-10.3-.83v-18.78Z"/>
      <path class="cls-4" d="M1818.63,378.87c4.52-4.27,8.85-8.35,13.77-12.98,2.6,3.13,5.48,6.6,8.66,10.43-5.54,3.72-10.49,7.05-15.68,10.54-2.3-2.72-4.44-5.24-6.75-7.98"/>
      <path class="cls-4" d="M779.34,645.73c13.1-3.11,26.51,3.03,32.66,14.94,6.21,12.03,3.06,26.61-7.61,35.49-2.25,1.87-4.47,3.8-6.55,5.86-6.09,6.03-9.96,12.94-8.89,21.96,.37,3.08-.08,6.25,.09,9.37,.2,3.74-1.24,5.09-5.61,3.63,0-3.17-.34-6.12,.06-8.97,1.96-13.85-4.43-23.57-14.88-31.59-7.05-5.41-10.85-12.71-11.07-21.69-.34-13.81,8.8-25.93,21.81-29.02"/>
      <path class="cls-4" d="M786.2,787.42c-11.44-.06-20.42-9.25-20.24-20.72,.18-11.14,9.3-20.09,20.4-20.01,11.34,.08,20.57,9.51,20.33,20.76-.24,11.13-9.37,20.03-20.48,19.97"/>
      <path class="cls-4" d="M1311.69,645.43h14.22v37.13c.41,.12,.82,.25,1.23,.38,5.43-11.12,10.86-22.24,16.5-33.8,4.23,2.06,8.14,3.96,12.69,6.18-5.49,11.46-10.85,22.67-16.22,33.87,.24,.17,.48,.34,.71,.51,9.66-7.66,19.32-15.33,29.41-23.33,2.98,3.67,5.81,7.16,8.95,11.03-9.9,7.93-19.52,15.63-29.14,23.34,.13,.3,.26,.6,.38,.9,11.97-2.68,23.94-5.36,36.4-8.16,1.09,4.65,2.09,8.9,3.22,13.73-12.43,2.88-24.58,5.68-36.72,8.49,.02,.28,.03,.56,.05,.84,12.03,2.78,24.07,5.56,36.8,8.49-1.11,4.67-2.15,9-3.28,13.74-12.21-2.75-23.92-5.38-35.64-8.02l-.63,1c9.5,7.66,19,15.32,28.71,23.16-2.99,3.73-5.73,7.16-8.85,11.06-9.92-7.89-19.65-15.64-29.39-23.38-.24,.18-.47,.36-.71,.54,5.34,11.12,10.68,22.24,16.29,33.92-4.14,2.04-8.17,4.02-12.74,6.27-5.43-11.21-10.74-22.16-16.05-33.1-.36,.01-.73,.03-1.09,.04v36.66h-14.14v-37.3c-.4-.09-.8-.17-1.21-.26-5.47,11.19-10.93,22.38-16.62,34.02-4.36-2.11-8.39-4.06-12.77-6.18,5.61-11.62,10.99-22.75,16.37-33.88-.18-.2-.36-.4-.54-.61-9.83,7.74-19.65,15.48-29.75,23.43-2.97-3.73-5.71-7.17-8.83-11.09,9.79-7.8,19.4-15.46,29.02-23.12-.13-.33-.26-.66-.4-.99-11.93,2.65-23.86,5.3-36.34,8.08-1.03-4.51-1.99-8.77-3.13-13.74,12.24-2.82,24.19-5.57,36.15-8.33,0-.34,.02-.69,.02-1.03-11.9-2.8-23.8-5.6-36.21-8.51,1.08-4.66,2.06-8.88,3.19-13.74,12.22,2.78,24.03,5.47,35.84,8.15,.18-.36,.35-.73,.52-1.09-9.47-7.62-18.95-15.24-28.75-23.14,3.02-3.77,5.84-7.31,8.86-11.09,9.96,7.94,19.64,15.67,29.33,23.39,.25-.15,.49-.3,.74-.45-5.32-11.19-10.65-22.38-16.16-33.97,4.2-2.08,8.1-4.01,12.72-6.29,5.38,11.16,10.64,22.08,15.9,33,.35-.03,.7-.07,1.06-.1v-36.65Z"/>
      <path class="cls-4" d="M677.3,338c43.1-.15,78.61,36.01,77.76,78.9-.84,42.61-36.58,78.05-77.76,76.71v-11.19c20.9-1.05,38.44-9.05,51.58-25.59,10.63-13.38,15.24-28.74,14.13-45.75-1.88-28.96-24.86-59.73-65.72-61.8v-11.27Z"/>
      <path class="cls-4" d="M677.13,367.2v-11.47c20.5,.45,36.91,8.54,48.49,24.97,14.17,20.09,15.51,41.66,4.25,63.61-9.97,19.44-31.08,31.96-52.49,31.4v-11.18c15.66-.87,28.85-7.1,38.42-19.88,7.28-9.73,10.24-20.81,9.34-32.96-1.44-19.53-16.96-42.71-48.02-44.48"/>
      <path class="cls-4" d="M677.26,446.9c19.51-3.78,30.26-14.91,30.27-31.05,.01-16.02-10.35-26.79-30.24-31.14v-10.66c21.72-1.88,42.07,18.66,41.99,42.05-.08,23.12-20.37,43.34-42.02,41.5v-10.7Z"/>
      <path class="cls-4" d="M677.16,402.66v-10.57c12.38-1.28,23.76,9.51,24.27,22.75,.54,13.9-10.52,25.53-24.17,25.03v-10.77c6.91-1.78,12.53-5.36,12.27-13.71-.25-7.75-5.52-11.14-12.38-12.75"/>
      <path class="cls-4" d="M1801.24,683.4c-2.94-3.2-5.48-6.36-8.41-9.09-14.13-13.17-35.56-12.94-48.97,.4-13.35,13.28-14.08,34.56-.96,48.6,11.32,12.11,23.1,23.84,35.18,35.19,13.73,12.89,34.69,12.44,47.9-.54,11.41-11.21,22.72-22.51,33.91-33.93,12.79-13.06,12.98-34.11,.64-47.6-12.65-13.82-33.42-15.61-47.74-3.93-3.8,3.1-7.17,6.74-11.54,10.9m.57-14.46c12.05-11.7,26.17-16.49,42.45-12.82,16.61,3.74,27.99,14.05,33.05,30.3,5.22,16.76,1.52,32.06-10.56,44.81-10.89,11.5-22.24,22.57-33.57,33.64-17.75,17.32-45.86,17.01-63.39-.52-10.89-10.88-21.74-21.8-32.66-32.65-17.31-17.2-17.96-45.01-1.43-62.76,16.5-17.7,43.94-19.14,62.36-3.26,1.23,1.06,2.44,2.12,3.75,3.25"/>
      <path class="cls-4" d="M207.93,977.07c0,2.76,.33,4.91-.05,6.92-2.8,14.76,2.95,25.04,15.22,33.35,9.24,6.26,8.68,13.92,.19,21.17-4.2,3.58-8.44,7.11-12.53,10.82-1.18,1.07-2.65,2.65-2.69,4.03-.25,8.31-.12,16.63-.12,25.04h21.36v-11.46h12.1c.22,4.03,.42,7.72,.63,11.45h27.98q2-25.07-16.46-40.89c-.72-.62-1.48-1.21-2.17-1.85-3.82-3.55-3.78-12.22,.17-15.68,5.15-4.52,10.44-8.88,15.58-13.4,1.23-1.08,2.97-2.54,3.02-3.87,.27-8.46,.14-16.94,.14-25.63h-62.35Zm77.27,101.47c2.73,.27,4.59,.45,6.8,.67v14.39h-105.97v-14.14c1.99-.31,3.97-.62,6.88-1.07,0-7.56,.35-15.29-.1-22.98-.44-7.51,1.78-13.24,8.06-17.64,4-2.8,7.47-6.35,11.62-9.95-4.91-4.21-10.01-7.7-13.9-12.22-2.74-3.18-5.04-7.66-5.43-11.76-.82-8.66-.25-17.45-.25-26.46-2.33-.37-4.34-.69-6.81-1.08v-14.31h105.78v14.29c-1.97,.32-4.12,.67-6.68,1.08,0,8.89,.57,17.67-.25,26.33-.39,4.1-2.68,8.57-5.4,11.77-3.88,4.55-8.96,8.08-13.93,12.4,4.96,4.29,10.02,7.81,13.9,12.34,2.73,3.19,5.03,7.66,5.42,11.75,.81,8.65,.25,17.43,.25,26.58"/>
      <path class="cls-4" d="M232.71,1009.51c4.24,0,8.48,0,12.71,0l-.12-.12v12.22h-12.47v-12.23l-.12,.12Z"/>
      <path class="cls-4" d="M232.82,1009.39h-12.29v-12.08h12.17v12.2l.12-.12"/>
      <path class="cls-4" d="M245.42,1009.52v-12.17h11.83v12.05h-11.96l.12,.12"/>
    </g>
  </g>
</svg>