<svg width="610" height="114" viewBox="0 0 610 114" fill="none" xmlns="http://www.w3.org/2000/svg">
<path d="M0 41.4696C0 36.0738 0.610128 30.5255 7.3978 30.5255C13.2321 30.5255 14.7956 35.4637 14.7956 40.4019V46.3888L26.3499 36.8174C30.5064 33.4426 34.8154 30.5255 39.4486 30.5255H51.3079C57.0088 30.5255 61.7754 32.3558 65.7984 36.3789C70.7367 41.3171 72.4145 46.3888 72.4145 53.1764C72.4145 58.2481 71.4803 63.4914 65.1883 63.4914C59.7734 63.4914 57.6189 59.1824 57.6189 54.3967C57.6189 51.9181 57.6189 50.0877 56.0936 47.9141C54.2442 45.302 50.7169 45.302 47.1705 45.302H42.8233C40.0587 45.302 38.0758 46.6557 35.4637 48.8293L14.8147 65.9128V103.359C14.8147 108.45 13.7469 113.522 7.41686 113.522C1.08679 113.522 0.0190665 108.45 0.0190665 103.359V41.4696H0Z" fill="white"/>
<path d="M106.239 67.972H149.081V59.0489C149.081 56.2652 149.233 53.9582 147.231 52.1278L141.531 47.1705C139.681 45.4927 136.783 45.3211 134.438 45.3211H121.968C119.204 45.3211 116.897 45.3211 114.418 47.037L109.327 50.7169C107.478 52.1278 106.258 53.1955 106.258 57.5045V67.972H106.239ZM118.575 113.56C112.397 113.56 109.956 113.56 105.323 109.556L98.9933 104.027C93.1208 98.7835 91.4429 95.4087 91.4429 87.3817V58.8773C91.4429 51.0219 92.5297 46.4078 98.6691 41.1646L103.912 36.7221C110.834 30.678 114.246 30.5636 120.252 30.5636H133.79C141.016 30.5636 144.41 31.3263 150.111 35.9594L156.116 40.707C162.923 46.1028 163.819 51.8037 163.819 59.9451V71.8235C163.819 80.289 162.447 82.7486 153.657 82.7486H106.2V87.6868C106.2 89.0596 107.268 90.909 108.374 91.9767L112.073 95.9807C114.075 98.1543 117.011 98.7454 121.93 98.7454H153.657C158.576 98.7454 163.819 99.8321 163.819 106.143C163.819 112.454 157.985 113.541 153.657 113.541H118.536L118.575 113.56Z" fill="white"/>
<path d="M241.897 49.0199V41.4696C241.897 36.2263 242.831 30.5445 249.428 30.5445C254.671 30.5445 256.673 34.701 256.673 39.4676V49.9351C256.673 52.3947 256.063 53.6531 254.995 55.9601L232.954 104.332C231.582 107.421 228.969 113.56 225.271 113.56H215.699C212 113.56 209.369 107.402 207.996 104.332L185.975 55.9601C184.907 53.6531 184.278 52.4138 184.278 49.9351V39.4676C184.278 34.6819 186.28 30.5445 191.523 30.5445C198.177 30.5445 199.073 36.2454 199.073 41.4696V49.0199L220.485 98.1733L241.897 49.0199V49.0199Z" fill="white"/>
<path d="M292.08 85.9898C292.08 89.0595 293.147 91.0806 297.475 94.7795C300.698 97.5251 303.005 98.7644 307.619 98.7644H319.326C323.959 98.7644 326.247 97.5251 329.507 94.7795C333.797 91.0806 334.865 89.0595 334.865 85.9898V58.1146C334.865 55.0259 333.797 53.0239 329.507 49.344C326.247 46.5794 323.959 45.3401 319.326 45.3401H307.619C303.005 45.3401 300.679 46.5794 297.475 49.344C293.147 53.0429 292.08 55.0449 292.08 58.1146V85.9898V85.9898ZM277.284 58.1146C277.284 48.2573 279.267 44.8634 286.684 38.8575C293.91 32.8706 297.323 30.5445 307.619 30.5445H319.326C329.621 30.5445 333.015 32.8515 340.28 38.8575C347.677 44.8634 349.679 48.2573 349.679 58.1146V85.9898C349.679 95.6947 347.201 99.3936 339.498 105.876C331.795 112.34 328.725 113.56 319.345 113.56H307.638C298.257 113.56 295.168 112.321 287.465 105.876C279.744 99.3936 277.284 95.6756 277.284 85.9898V58.1146Z" fill="white"/>
<path d="M408.042 98.7644H419.139C424.058 98.7644 429.301 99.8321 429.301 106.162C429.301 112.492 423.448 113.56 419.139 113.56H381.558C377.249 113.56 371.396 112.645 371.396 106.162C371.396 99.6796 376.62 98.7644 381.558 98.7644H393.265V14.7956H381.558C377.249 14.7956 371.396 13.8804 371.396 7.3978C371.396 0.915191 376.62 0 381.539 0H397.098C405.563 0 408.023 1.54439 408.023 10.2959V98.7644H408.042Z" fill="white"/>
<path d="M474.031 85.6658C474.031 93.9978 473.726 98.7454 483.869 98.7454H491.42C497.426 98.7454 500.209 98.2878 501.735 92.2818C502.65 88.7355 505.453 86.2568 509.132 86.2568C513.289 86.2568 516.683 89.4981 516.683 93.6737C516.683 97.8493 514.052 103.054 511.611 105.991C506.196 112.473 499.123 113.541 491.267 113.541H483.717C476.319 113.541 469.855 111.844 464.631 106.124C458.911 99.8131 459.235 93.5021 459.235 85.4942V45.302H454.45C450.141 45.302 444.287 44.3868 444.287 37.9042C444.287 31.4216 449.512 30.5255 454.45 30.5255H459.235V15.4058C459.235 10.315 460.303 5.26239 466.633 5.26239C472.963 5.26239 474.031 10.315 474.031 15.4058V30.5255H498.837C503.756 30.5255 508.98 31.5932 508.98 37.9042C508.98 44.2152 503.127 45.302 498.837 45.302H474.031V85.6848V85.6658Z" fill="white"/>
<path d="M559.849 74.7597C555.674 74.7597 549.553 75.9037 549.553 81.5283V91.8242C549.553 96.9912 555.826 98.1161 559.525 98.1161H576.59L593.654 89.2502V85.8564C593.654 77.3527 591.233 74.7406 582.71 74.7406H559.83L559.849 74.7597ZM560.021 42.2322C555.521 42.2322 549.382 41.2599 549.382 34.5103C549.382 27.7608 554.854 26.7884 560.021 26.7884H581.261C589.307 26.7884 595.122 27.5892 601.224 33.7095C607.172 39.6773 607.973 44.3296 608.145 52.0515L609.746 104.542C609.899 109.041 607.649 113.541 602.501 113.541C598.478 113.541 594.455 110.166 594.607 105.838L583.987 111.31C579.621 113.56 579.469 113.56 574.473 113.56H559.659C552.737 113.56 547.742 112.759 542.098 108.088C535.673 102.787 534.071 97.1437 534.071 89.0786V82.3481C534.071 74.9122 535.845 70.26 541.641 65.093C546.922 60.4217 552.909 59.2968 559.678 59.2968H592.834V55.7504C592.834 44.158 590.279 42.2322 579.145 42.2322H560.002H560.021Z" fill="white"/>
</svg>
