<svg width="11" height="14" viewBox="0 0 11 14" fill="none" xmlns="http://www.w3.org/2000/svg">
<path d="M5.4257 6.66683C4.98367 6.66683 4.55975 6.49123 4.24719 6.17867C3.93463 5.86611 3.75903 5.44219 3.75903 5.00016C3.75903 4.55814 3.93463 4.13421 4.24719 3.82165C4.55975 3.50909 4.98367 3.3335 5.4257 3.3335C5.86773 3.3335 6.29165 3.50909 6.60421 3.82165C6.91677 4.13421 7.09237 4.55814 7.09237 5.00016C7.09237 5.21903 7.04926 5.43576 6.9655 5.63797C6.88174 5.84018 6.75898 6.02391 6.60421 6.17867C6.44945 6.33344 6.26572 6.4562 6.06351 6.53996C5.8613 6.62372 5.64457 6.66683 5.4257 6.66683ZM5.4257 0.333496C4.18802 0.333496 3.00104 0.825161 2.12587 1.70033C1.2507 2.5755 0.759033 3.76249 0.759033 5.00016C0.759033 8.50016 5.4257 13.6668 5.4257 13.6668C5.4257 13.6668 10.0924 8.50016 10.0924 5.00016C10.0924 3.76249 9.6007 2.5755 8.72553 1.70033C7.85036 0.825161 6.66338 0.333496 5.4257 0.333496Z" fill="white"/>
</svg>
