<svg width="14" height="12" viewBox="0 0 14 12" fill="none" xmlns="http://www.w3.org/2000/svg">
<path d="M12.3333 0.666504H1.66659C0.933252 0.666504 0.339919 1.2665 0.339919 1.99984L0.333252 9.99984C0.333252 10.7332 0.933252 11.3332 1.66659 11.3332H12.3333C13.0666 11.3332 13.6666 10.7332 13.6666 9.99984V1.99984C13.6666 1.2665 13.0666 0.666504 12.3333 0.666504ZM12.0666 3.49984L7.35325 6.4465C7.13992 6.57984 6.85992 6.57984 6.64659 6.4465L1.93325 3.49984C1.8664 3.46231 1.80786 3.41161 1.76118 3.35081C1.71449 3.29 1.68063 3.22036 1.66164 3.14608C1.64264 3.07181 1.63892 2.99446 1.65069 2.91871C1.66246 2.84296 1.68948 2.77038 1.73011 2.70537C1.77074 2.64036 1.82413 2.58427 1.88707 2.5405C1.95 2.49673 2.02117 2.46618 2.09625 2.4507C2.17133 2.43523 2.24877 2.43515 2.32389 2.45047C2.399 2.46579 2.47023 2.49619 2.53325 2.53984L6.99992 5.33317L11.4666 2.53984C11.5296 2.49619 11.6008 2.46579 11.6759 2.45047C11.7511 2.43515 11.8285 2.43523 11.9036 2.4507C11.9787 2.46618 12.0498 2.49673 12.1128 2.5405C12.1757 2.58427 12.2291 2.64036 12.2697 2.70537C12.3104 2.77038 12.3374 2.84296 12.3491 2.91871C12.3609 2.99446 12.3572 3.07181 12.3382 3.14608C12.3192 3.22036 12.2853 3.29 12.2387 3.35081C12.192 3.41161 12.1334 3.46231 12.0666 3.49984Z" fill="white"/>
</svg>
